<svg class="c-image__page-navigation__logo--storytel-landscape" xmlns="http://www.w3.org/2000/svg" viewBox="0 0 126 27">
<g fill="inherit" fill-rule="evenodd">
<g fill="inherit">
<path d="M29.423 16.695c.815.496 2.506 1.051 3.818 1.051 1.339 0 1.891-.438 1.891-1.168 0-.758-.436-1.109-2.068-1.663-2.972-.992-4.106-2.598-4.077-4.29 0-2.685 2.273-4.697 5.795-4.697 1.66 0 3.118.41 3.991.846l-.757 3.065c-.64-.351-1.893-.817-3.088-.817-1.076 0-1.687.438-1.687 1.138s.552 1.051 2.298 1.663c2.709.934 3.818 2.334 3.847 4.406 0 2.685-2.068 4.638-6.145 4.638-1.865 0-3.525-.436-4.6-1.021l.782-3.15zM46.364 2.427v3.85h3.174v3.27h-3.174v5.162c0 1.721.436 2.51 1.746 2.51.611 0 .905-.03 1.31-.118l.029 3.357c-.553.203-1.633.378-2.855.378-1.428 0-2.621-.495-3.349-1.224-.815-.846-1.222-2.217-1.222-4.232V3.622l4.341-1.195zM66.025 13.252c0 5.223-3.7 7.615-7.516 7.615-4.164 0-7.367-2.743-7.367-7.352 0-4.638 3.028-7.587 7.632-7.587 4.338 0 7.25 3.004 7.25 7.324zm-10.312.145c0 2.45 1.021 4.29 2.913 4.29 1.746 0 2.826-1.72 2.826-4.32 0-2.1-.816-4.26-2.826-4.26-2.096.002-2.913 2.19-2.913 4.29zM68.763 10.975c0-2.1-.03-3.47-.117-4.696h3.789l.173 2.628h.115C73.45 6.805 75.17 5.93 76.57 5.93c.407 0 .611.029.93.087v4.172a6.577 6.577 0 0 0-1.193-.116c-1.632 0-2.738.875-3.028 2.246a5.255 5.255 0 0 0-.086.994v7.235h-4.429v-9.573h-.001zM83.675 6.277l2.127 7.034c.233.817.523 1.895.699 2.655h.116c.175-.788.407-1.838.611-2.684l1.775-7.003h4.72l-3.32 9.396c-2.04 5.69-3.408 7.935-5.008 9.366-1.516 1.342-3.147 1.839-4.254 1.956l-.963-3.736c.556-.115 1.253-.38 1.923-.758.67-.35 1.428-1.078 1.835-1.778.146-.234.233-.468.233-.642 0-.175-.029-.38-.173-.729L78.753 6.282h4.922v-.005zM100.54 2.427v3.85h3.175v3.27h-3.174v5.162c0 1.721.436 2.51 1.746 2.51.61 0 .903-.03 1.31-.118l.029 3.357c-.553.203-1.631.378-2.855.378-1.427 0-2.621-.495-3.35-1.224-.815-.846-1.222-2.217-1.222-4.232V3.622l4.342-1.195zM109.541 14.828c.115 1.838 1.952 2.713 4.019 2.713 1.514 0 2.738-.203 3.93-.612l.583 3.005c-1.458.612-3.233.904-5.154.904-4.835 0-7.603-2.8-7.603-7.264 0-3.618 2.242-7.617 7.193-7.617 4.6 0 6.35 3.59 6.35 7.12 0 .758-.088 1.43-.146 1.75h-9.172zm5.213-3.036c0-1.08-.465-2.887-2.504-2.887-1.866 0-2.623 1.72-2.738 2.887h5.242zM121.513 20.546h4.427V.51l-4.427 1.22z"></path>
</g>
<path fill="#FF5C28" fill-rule="nonzero" d="M22.982 12.497c.984-5.4-2.3-10.229-7.441-11.833C6.41-2.184-.06 6.194.015 14.642c.06 6.824 1.521 11.36 1.521 11.364-.065-.203 1.726-1.147 1.932-1.254a15.284 15.284 0 0 1 2.183-.903c1.54-.512 3.133-.835 4.712-1.197 4.94-1.131 10.25-3.264 12.14-8.402.213-.58.371-1.166.48-1.753z"></path>
</g>
</svg>